<svg xmlns="http://www.w3.org/2000/svg" width="36" height="37" viewBox="0 0 36 37">
    <g fill="none" fill-rule="evenodd">
        <g fill-rule="nonzero">
            <g>
                <g>
                    <g>
                        <g>
                            <path fill="#D8D7E6" d="M16.2 0L.16 22.422c-.13.183-.185.41-.15.634.036.224.156.423.336.553L16.2 35.1V0z" transform="translate(-738 -2575) translate(268.2 2235.6) translate(465.3 36.9) translate(4.5 297.9) translate(0 5.4)"/>
                            <path fill="#5454D4" d="M34.941 22.422L18.9 0v35.1l15.854-11.49c.18-.13.3-.33.336-.554.034-.222-.019-.45-.149-.634z" transform="translate(-738 -2575) translate(268.2 2235.6) translate(465.3 36.9) translate(4.5 297.9) translate(0 5.4)"/>
                        </g>
                    </g>
                </g>
            </g>
        </g>
    </g>
</svg>
